<svg xmlns="http://www.w3.org/2000/svg" width="31.333" height="31" viewBox="0 0 31.333 31"><defs><style>.a{fill:none;stroke:#fff;stroke-linecap:round;stroke-linejoin:round;}</style></defs><g transform="translate(30.833 30.5) rotate(180)"><path class="a" d="M2.667,30H30.333V0H2.667A2.666,2.666,0,0,0,0,2.667V27.333A2.666,2.666,0,0,0,2.667,30Z"/><path class="a" d="M1.865,14.221,9,8.671l7.135,5.549A1.144,1.144,0,0,0,18,13.468V7.579a1.916,1.916,0,0,0-.768-1.505L9.743.248a1.232,1.232,0,0,0-1.483,0L.768,6.075A1.916,1.916,0,0,0,0,7.58v5.891a1.144,1.144,0,0,0,1.865.751Z" transform="translate(6 7.529)"/></g></svg>