<svg xmlns="http://www.w3.org/2000/svg" width="32" height="32" viewBox="0 0 32 32"><defs><style>.a{opacity:0.5;}.b{fill:none;stroke:#292929;stroke-linecap:round;stroke-linejoin:round;stroke-width:2px;}</style></defs><g class="a" transform="translate(1 1)"><path class="b" d="M16,18.5a.5.5,0,1,0,.5.5.5.5,0,0,0-.5-.5h0" transform="translate(-1 -1)"/><path class="b" d="M21,13V10a5.012,5.012,0,0,0-5-5h0a5.014,5.014,0,0,0-5,5v3" transform="translate(-1 -1)"/><path class="b" d="M1,5V3A2,2,0,0,1,3,1H5" transform="translate(-1 -1)"/><path class="b" d="M31,5V3a2,2,0,0,0-2-2H27" transform="translate(-1 -1)"/><path class="b" d="M1,27v2a2,2,0,0,0,2,2H5" transform="translate(-1 -1)"/><path class="b" d="M31,27v2a2,2,0,0,1-2,2H27" transform="translate(-1 -1)"/><path class="b" d="M11,13H21a2,2,0,0,1,2,2v8a2,2,0,0,1-2,2H11a2,2,0,0,1-2-2V15A2,2,0,0,1,11,13Z" transform="translate(-1 -1)"/></g></svg>