<svg xmlns="http://www.w3.org/2000/svg" width="31.333" height="31" viewBox="0 0 31.333 31"><defs><style>.a{fill:none;stroke:#fff;stroke-linecap:round;stroke-linejoin:round;}</style></defs><g transform="translate(0.5 0.5)"><path class="a" d="M3.667,31H31.333V1H3.667A2.666,2.666,0,0,0,1,3.667V28.333A2.666,2.666,0,0,0,3.667,31Z" transform="translate(-1 -1)"/><path class="a" d="M8.865,23.208,16,17.658l7.135,5.549A1.144,1.144,0,0,0,25,22.455V16.566a1.916,1.916,0,0,0-.768-1.505L16.743,9.235a1.232,1.232,0,0,0-1.483,0L7.768,15.062A1.916,1.916,0,0,0,7,16.567v5.891a1.144,1.144,0,0,0,1.865.751Z" transform="translate(-1 -1.458)"/></g></svg>